<?xml version="1.0" encoding="utf-8"?>
<!-- Generator: Adobe Illustrator 26.0.1, SVG Export Plug-In . SVG Version: 6.00 Build 0)  -->
<svg version="1.1" id="Calque_1" xmlns="http://www.w3.org/2000/svg" xmlns:xlink="http://www.w3.org/1999/xlink" x="0px" y="0px"
	 viewBox="0 0 368.5 170.08" style="enable-background:new 0 0 368.5 170.08;" xml:space="preserve">
<style type="text/css">
	.st0{fill:none;stroke:#432918;stroke-width:5;stroke-miterlimit:10;}
	.st1{fill:#7D4E24;stroke:#432918;stroke-width:5;stroke-miterlimit:10;}
	.st2{fill:none;stroke:#000000;stroke-width:5;stroke-miterlimit:10;}
	.st3{fill:#432918;stroke:#432918;stroke-width:5;stroke-miterlimit:10;}
	.st4{fill:none;stroke:#FFFFFF;stroke-width:12;stroke-miterlimit:10;}
	.st5{fill:#432918;}
	.st6{fill:none;stroke:#432918;stroke-width:0.75;stroke-miterlimit:10;}
</style>
<g>
	<polyline class="st0" points="102.49,140.43 108.69,141.67 108.94,141.72 	"/>
	<polyline class="st0" points="108.94,141.72 108.91,141.46 100.25,45.39 99.65,38.84 93.21,37.56 93.21,37.56 13.54,21.64 
		13.39,21.61 	"/>
	<polyline class="st1" points="103.08,146.98 103.08,146.97 102.49,140.43 93.8,44.1 13.98,28.16 7.54,26.87 7.29,26.82 	"/>
	<line class="st2" x1="93.21" y1="37.56" x2="93.21" y2="37.56"/>
	<polyline class="st0" points="13.98,28.16 13.41,21.75 13.39,21.61 	"/>
	<polyline class="st3" points="7.52,26.62 7.54,26.87 16.23,123.2 16.82,129.75 23.27,131.03 103.08,146.98 103.08,146.98 	"/>
	<polyline class="st0" points="7.29,26.82 7.52,26.62 13.41,21.75 13.54,21.64 14.19,21.1 	"/>
	<line class="st2" x1="103.08" y1="146.97" x2="103.08" y2="146.98"/>
</g>
<g>
	<line class="st4" x1="21.45" y1="80.05" x2="86.78" y2="92.21"/>
	<polyline class="st4" points="86.13,57.1 19.61,44.72 24.48,116.69 90.99,129.08 	"/>
</g>
<rect x="119.39" y="89.06" class="st5" width="33.12" height="9.62"/>
<g>
	<path class="st5" d="M167.76,69.14h14.5c9.31,0,16.16,2.86,16.16,11.17c0,4.27-2.33,8.43-6.29,9.81v0.28
		c5.02,1.14,8.7,4.63,8.7,10.75c0,9.06-7.43,13.3-17.41,13.3h-15.66V69.14z M181.54,87.85c6.32,0,9.01-2.47,9.01-6.4
		c0-4.38-2.97-6.04-8.84-6.04h-5.9v12.45H181.54z M182.59,108.19c6.65,0,10.37-2.38,10.37-7.48c0-4.77-3.6-6.85-10.37-6.85h-6.79
		v14.33H182.59z"/>
	<path class="st5" d="M209.13,69.14h8.04v45.32h-8.04V69.14z"/>
	<path class="st5" d="M228.67,69.14h14.5c9.31,0,16.16,2.86,16.16,11.17c0,4.27-2.33,8.43-6.29,9.81v0.28
		c5.02,1.14,8.7,4.63,8.7,10.75c0,9.06-7.43,13.3-17.41,13.3h-15.66V69.14z M242.45,87.85c6.32,0,9.01-2.47,9.01-6.4
		c0-4.38-2.97-6.04-8.84-6.04h-5.9v12.45H242.45z M243.5,108.19c6.65,0,10.37-2.38,10.37-7.48c0-4.77-3.6-6.85-10.37-6.85h-6.79
		v14.33H243.5z"/>
	<path class="st5" d="M270.04,69.14h8.04v38.56h18.82v6.76h-26.86V69.14z"/>
	<path class="st5" d="M304.83,69.14h8.04v45.32h-8.04V69.14z"/>
	<path class="st5" d="M321.99,91.62c0-14.66,8.18-23.31,19.98-23.31s19.98,8.69,19.98,23.31c0,14.66-8.18,23.67-19.98,23.67
		S321.99,106.28,321.99,91.62z M353.69,91.62c0-10.17-4.6-16.33-11.72-16.33c-7.12,0-11.73,6.15-11.73,16.33s4.6,16.69,11.73,16.69
		C349.09,108.3,353.69,101.79,353.69,91.62z"/>
</g>
<line class="st6" x1="14.97" y1="24.88" x2="96.44" y2="41.4"/>
<line class="st6" x1="105.71" y1="140.43" x2="96.44" y2="41.4"/>
</svg>
